<svg width="24" height="24" viewBox="0 0 24 24" fill="none" xmlns="http://www.w3.org/2000/svg">
<path d="M10.0024 22.9946C11.1072 22.9946 12.0029 22.0989 12.0029 20.9941C12.0029 19.8893 11.1072 18.9937 10.0024 18.9937C8.89759 18.9937 8.00195 19.8893 8.00195 20.9941C8.00195 22.0989 8.89759 22.9946 10.0024 22.9946Z" stroke="#8F8F8F" stroke-width="2" stroke-miterlimit="10"/>
<path d="M18.9995 22.9946C20.1043 22.9946 20.9999 22.0989 20.9999 20.9941C20.9999 19.8893 20.1043 18.9937 18.9995 18.9937C17.8947 18.9937 16.999 19.8893 16.999 20.9941C16.999 22.0989 17.8947 22.9946 18.9995 22.9946Z" stroke="#8F8F8F" stroke-width="2" stroke-miterlimit="10"/>
<path d="M0 1H2.78597C3.42483 0.998883 4.04744 1.20134 4.56346 1.57799C5.07948 1.95465 5.46207 2.48592 5.65573 3.09472L8.99681 13.9977H8.50455C7.84066 13.9977 7.20397 14.2614 6.73453 14.7309C6.26509 15.2003 6.00136 15.837 6.00136 16.5009C6.00413 17.163 6.26908 17.797 6.73822 18.2642C7.20736 18.7313 7.84247 18.9936 8.50455 18.9936H18.9781" stroke="#8F8F8F" stroke-width="2" stroke-miterlimit="10"/>
<path d="M7.00684 5.00085H23V7.00131L20.9995 13.9977H8.99682" stroke="#8F8F8F" stroke-width="2" stroke-miterlimit="10"/>
</svg>
