<svg width="133" height="20" viewBox="0 0 133 20" fill="none" xmlns="http://www.w3.org/2000/svg">
<path d="M19.9689 7.58739C19.8946 7.36518 19.702 7.20329 19.4704 7.16766L13.3216 6.22818L10.5667 0.359414C10.4635 0.140015 10.2429 0 10.0007 0C9.75845 0 9.53811 0.140015 9.43466 0.359414L6.67967 6.22818L0.530876 7.16797C0.299288 7.20329 0.107079 7.36549 0.0323835 7.5877C-0.0419996 7.8096 0.013944 8.05463 0.177712 8.22246L4.64508 12.8033L3.58934 19.274C3.55058 19.5103 3.65028 19.7481 3.84624 19.8856C3.95375 19.9616 4.0797 20 4.20597 20C4.30973 20 4.41411 19.9737 4.5085 19.9219L10.0003 16.8843L15.4922 19.9219C15.5866 19.9737 15.691 20 15.7947 20C15.921 20 16.0473 19.9616 16.1545 19.8856C16.3504 19.7481 16.4501 19.5103 16.4114 19.274L15.3556 12.8033L19.823 8.22246C19.9871 8.05432 20.0433 7.80929 19.9689 7.58739Z" fill="#FF7373"/>
<path d="M47.9702 7.58739C47.8958 7.36518 47.7033 7.20329 47.4717 7.16766L41.3229 6.22818L38.5679 0.359414C38.4648 0.140015 38.2441 0 38.0019 0C37.7597 0 37.5394 0.140015 37.4359 0.359414L34.6809 6.22818L28.5321 7.16797C28.3005 7.20329 28.1083 7.36549 28.0336 7.5877C27.9593 7.8096 28.0152 8.05463 28.179 8.22246L32.6463 12.8033L31.5906 19.274C31.5518 19.5103 31.6515 19.7481 31.8475 19.8856C31.955 19.9616 32.081 20 32.2072 20C32.311 20 32.4154 19.9737 32.5097 19.9219L38.0016 16.8843L43.4935 19.9219C43.5878 19.9737 43.6922 20 43.796 20C43.9222 20 44.0485 19.9616 44.1557 19.8856C44.3517 19.7481 44.4514 19.5103 44.4126 19.274L43.3569 12.8033L47.8242 8.22246C47.9883 8.05432 48.0446 7.80929 47.9702 7.58739Z" fill="#FF7373"/>
<path d="M75.9714 7.58739C75.8971 7.36518 75.7045 7.20329 75.4729 7.16766L69.3242 6.22818L66.5692 0.359414C66.466 0.140015 66.2454 0 66.0032 0C65.7609 0 65.5406 0.140015 65.4372 0.359414L62.6822 6.22818L56.5334 7.16797C56.3018 7.20329 56.1096 7.36549 56.0349 7.5877C55.9605 7.8096 56.0164 8.05463 56.1802 8.22246L60.6476 12.8033L59.5918 19.274C59.5531 19.5103 59.6528 19.7481 59.8487 19.8856C59.9563 19.9616 60.0822 20 60.2085 20C60.3122 20 60.4166 19.9737 60.511 19.9219L66.0029 16.8843L71.4947 19.9219C71.5891 19.9737 71.6935 20 71.7972 20C71.9235 20 72.0498 19.9616 72.157 19.8856C72.3529 19.7481 72.4526 19.5103 72.4139 19.274L71.3581 12.8033L75.8255 8.22246C75.9896 8.05432 76.0458 7.80929 75.9714 7.58739Z" fill="#FF7373"/>
<path d="M103.973 7.58739C103.898 7.36518 103.706 7.20329 103.474 7.16766L97.3254 6.22818L94.5704 0.359414C94.4673 0.140015 94.2466 0 94.0044 0C93.7622 0 93.5419 0.140015 93.4384 0.359414L90.6834 6.22818L84.5346 7.16797C84.303 7.20329 84.1108 7.36549 84.0361 7.5877C83.9618 7.8096 84.0177 8.05463 84.1815 8.22246L88.6488 12.8033L87.5931 19.274C87.5543 19.5103 87.654 19.7481 87.85 19.8856C87.9575 19.9616 88.0835 20 88.2097 20C88.3135 20 88.4179 19.9737 88.5123 19.9219L94.0041 16.8843L99.496 19.9219C99.5903 19.9737 99.6947 20 99.7985 20C99.9247 20 100.051 19.9616 100.158 19.8856C100.354 19.7481 100.454 19.5103 100.415 19.274L99.3594 12.8033L103.827 8.22246C103.991 8.05432 104.047 7.80929 103.973 7.58739Z" fill="#FF7373"/>
<path d="M131.974 7.58739C131.9 7.36518 131.707 7.20329 131.475 7.16766L125.327 6.22818L122.572 0.359414C122.469 0.140015 122.248 0 122.006 0C121.763 0 121.543 0.140015 121.44 0.359414L118.685 6.22818L112.536 7.16797C112.304 7.20329 112.112 7.36549 112.037 7.5877C111.963 7.8096 112.019 8.05463 112.183 8.22246L116.65 12.8033L115.594 19.274C115.556 19.5103 115.655 19.7481 115.851 19.8856C115.959 19.9616 116.085 20 116.211 20C116.315 20 116.419 19.9737 116.514 19.9219L122.005 16.8843L127.497 19.9219C127.592 19.9737 127.696 20 127.8 20C127.926 20 128.052 19.9616 128.159 19.8856C128.355 19.7481 128.455 19.5103 128.416 19.274L127.361 12.8033L131.828 8.22246C131.992 8.05432 132.048 7.80929 131.974 7.58739Z" fill="#FF7373"/>
</svg>
