<svg width="48" height="62" viewBox="0 0 48 62" fill="none" xmlns="http://www.w3.org/2000/svg">
<g id="Group 9">
<path id="Vector" d="M23.9453 8.72595C20.9376 8.72595 17.9973 9.61778 15.4964 11.2887C12.9954 12.9596 11.046 15.3345 9.89471 18.1132C8.74339 20.8919 8.44181 23.9496 9.02812 26.8996C9.61443 29.8497 11.0623 32.5597 13.1886 34.687C15.315 36.8142 18.0244 38.2633 20.9742 38.8509C23.924 39.4385 26.9818 39.1382 29.761 37.9881C32.5402 36.838 34.916 34.8896 36.5879 32.3894C38.2599 29.8891 39.153 26.9493 39.1543 23.9415C39.1491 19.9089 37.5453 16.0427 34.6943 13.1906C31.8434 10.3384 27.978 8.73293 23.9453 8.72595ZM23.9453 37.2312C21.3153 37.2312 18.7443 36.4513 16.5576 34.99C14.3709 33.5286 12.6667 31.4517 11.6605 29.0217C10.6543 26.5917 10.3914 23.9179 10.905 21.3385C11.4186 18.7591 12.6856 16.3899 14.5458 14.5307C16.4059 12.6714 18.7757 11.4056 21.3554 10.8933C23.9351 10.381 26.6087 10.6453 29.0382 11.6526C31.4677 12.66 33.5438 14.3653 35.004 16.5527C36.4643 18.7401 37.243 21.3115 37.2417 23.9415C37.2364 27.4657 35.8337 30.844 33.3411 33.3353C30.8485 35.8267 27.4695 37.2278 23.9453 37.2312Z" fill="#FF7373"/>
<path id="Vector_2" d="M44.1206 18.5993C43.3909 18.3407 42.759 17.8629 42.3115 17.2312C41.864 16.5995 41.6228 15.8449 41.621 15.0707C41.6237 14.5115 41.7498 13.9597 41.9903 13.4548C42.413 12.601 42.6073 11.6521 42.5541 10.7008C42.5009 9.74956 42.2022 8.82828 41.6869 8.02683C40.9564 6.8362 39.8076 5.96122 38.4656 5.57328C37.1237 5.18533 35.6852 5.31236 34.432 5.9295C33.9576 6.15392 33.4415 6.27688 32.9168 6.29051C32.3921 6.30414 31.8704 6.20814 31.3849 6.00864C30.8954 5.80641 30.4549 5.50162 30.0932 5.1148C29.7314 4.72799 29.4567 4.26813 29.2876 3.76621C28.8944 2.66404 28.1699 1.71046 27.2135 1.0362C26.2571 0.36194 25.1155 0 23.9453 0C22.7751 0 21.6336 0.36194 20.6771 1.0362C19.7207 1.71046 18.9963 2.66404 18.6031 3.76621C18.4296 4.26358 18.1536 4.71894 17.7928 5.10278C17.4321 5.48662 16.9947 5.79037 16.509 5.99433C16.0234 6.19829 15.5003 6.29792 14.9737 6.28675C14.447 6.27558 13.9286 6.15387 13.4521 5.9295C12.5959 5.5097 11.6461 5.31768 10.6941 5.37198C9.74216 5.42628 8.82028 5.72506 8.01745 6.23948C7.20523 6.74779 6.53376 7.45204 6.06472 8.28755C5.59568 9.12306 5.34412 10.063 5.33313 11.0211C5.33644 11.8718 5.53262 12.7107 5.90693 13.4746C6.14298 13.9808 6.26672 14.532 6.26967 15.0905C6.26865 15.8664 6.02797 16.6231 5.58054 17.2571C5.13311 17.891 4.50078 18.3713 3.77002 18.6322C2.66713 19.0238 1.71257 19.7473 1.0375 20.7033C0.362436 21.6593 0 22.8009 0 23.9712C0 25.1415 0.362436 26.2831 1.0375 27.2391C1.71257 28.1951 2.66713 28.9186 3.77002 29.3102C4.50077 29.5731 5.13278 30.0548 5.58004 30.6897C6.0273 31.3246 6.2681 32.0819 6.26967 32.8585C6.26876 33.4109 6.14485 33.9561 5.90693 34.4546C5.48329 35.3091 5.28798 36.2586 5.33999 37.2109C5.392 38.1633 5.68955 39.0859 6.20372 39.8892C6.61332 40.5361 7.14716 41.0954 7.77434 41.5346C8.40152 41.9739 9.10959 42.2844 9.85757 42.4482L4.2251 56.127C4.1564 56.2929 4.13544 56.4747 4.16457 56.6518C4.19371 56.829 4.27178 56.9944 4.38999 57.1295C4.50963 57.2619 4.66327 57.3589 4.8342 57.4101C5.00513 57.4613 5.18682 57.4646 5.35951 57.4197L11.9549 55.6258L15.3581 61.5089C15.4414 61.6557 15.5622 61.7778 15.7083 61.8624C15.8544 61.947 16.0203 61.9912 16.1891 61.9903H16.2485C16.4274 61.9773 16.5991 61.915 16.7447 61.8102C16.8902 61.7054 17.0039 61.5623 17.0729 61.3968L22.6922 47.7311C23.1244 47.8336 23.5671 47.8845 24.0113 47.8828C24.3969 47.8832 24.7815 47.8434 25.1589 47.7641L30.6924 61.3968C30.7615 61.5623 30.8751 61.7054 31.0207 61.8102C31.1662 61.915 31.338 61.9773 31.5168 61.9903H31.5828C31.7515 61.9905 31.9172 61.9461 32.0631 61.8615C32.2091 61.7769 32.3301 61.6553 32.4138 61.5089L35.817 55.6258L42.4124 57.4197C42.5886 57.4695 42.7752 57.468 42.9506 57.4154C43.1259 57.3629 43.2826 57.2614 43.4024 57.123C43.5221 56.9846 43.5999 56.8149 43.6267 56.6338C43.6534 56.4528 43.628 56.2678 43.5534 56.1007L37.888 42.4416C39.1874 42.1952 40.3615 41.5069 41.2114 40.4936C42.0613 39.4802 42.5345 38.2041 42.5509 36.8817C42.5529 36.0311 42.3588 35.1916 41.9837 34.4282C41.7463 33.9246 41.6204 33.3757 41.6144 32.8189C41.6169 32.0424 41.8589 31.2856 42.3074 30.6517C42.756 30.0178 43.3892 29.5378 44.1206 29.2772C45.2235 28.8857 46.1781 28.1622 46.8532 27.2062C47.5282 26.2502 47.8907 25.1085 47.8907 23.9382C47.8907 22.7679 47.5282 21.6263 46.8532 20.6703C46.1781 19.7143 45.2235 18.9908 44.1206 18.5993ZM16.0309 58.8641L13.2344 54.0231C13.1292 53.8394 12.9655 53.6962 12.7696 53.6161C12.5736 53.5361 12.3565 53.5238 12.1528 53.5812L6.75773 55.052L11.9087 42.468C12.4429 42.3758 12.962 42.2116 13.4521 41.9799C13.8677 41.7866 14.3143 41.6683 14.7711 41.6304C14.8766 41.6236 14.9823 41.6236 15.0877 41.6304C15.8619 41.6322 16.6165 41.8734 17.2482 42.3209C17.8799 42.7684 18.3577 43.4003 18.6162 44.13C19.0267 45.3278 19.8342 46.3494 20.9049 47.0254L16.0309 58.8641ZM41.0208 55.052L35.6324 53.5812C35.4276 53.5245 35.2099 53.5371 35.0131 53.617C34.8162 53.697 34.6514 53.8397 34.5441 54.0231L31.7279 58.8641L26.8869 47.0782C28.0079 46.4028 28.8554 45.3544 29.281 44.1168C29.4404 43.6565 29.6867 43.2311 30.0065 42.8637C30.3584 42.4634 30.7916 42.1428 31.2772 41.9233C31.7629 41.7038 32.2898 41.5904 32.8227 41.5908H33.0734C33.5445 41.6234 34.0054 41.7442 34.432 41.9469C34.8726 42.1566 35.338 42.3095 35.817 42.402L41.0208 55.052ZM43.4941 27.4767C42.3923 27.8713 41.439 28.5959 40.7639 29.5519C40.0888 30.5078 39.7248 31.6486 39.7215 32.8189C39.7272 33.6629 39.9162 34.4955 40.2755 35.2592C40.5232 35.7642 40.6518 36.3192 40.6515 36.8817C40.6456 37.4024 40.5318 37.9163 40.3172 38.3908C40.1027 38.8653 39.792 39.2902 39.4049 39.6386C39.0294 39.9865 38.5859 40.2528 38.1023 40.4208C37.6188 40.5888 37.1056 40.6548 36.5953 40.6147C36.1368 40.5729 35.6897 40.4478 35.2762 40.2453C34.1599 39.7137 32.9009 39.5601 31.6896 39.8076C30.4782 40.0551 29.3804 40.6903 28.5621 41.6172C28.0896 42.1636 27.7208 42.7916 27.4739 43.4705C27.3031 43.9805 27.0218 44.4465 26.6502 44.8353C26.2785 45.2241 25.8256 45.526 25.3238 45.7195C24.3973 46.0619 23.3763 46.0454 22.4614 45.6733C21.98 45.4741 21.5472 45.1736 21.1922 44.7924C20.8371 44.4112 20.5682 43.9581 20.4036 43.4639C20.0091 42.3639 19.2852 41.4122 18.3305 40.7383C17.3757 40.0645 16.2365 39.7012 15.0679 39.6979C14.89 39.6871 14.7116 39.6871 14.5337 39.6979C13.8756 39.763 13.2334 39.9392 12.6342 40.219C12.1687 40.4405 11.6649 40.5704 11.1503 40.6015H10.9986C10.3618 40.5923 9.73755 40.4232 9.18321 40.1098C8.62887 39.7963 8.16223 39.3485 7.82619 38.8075C7.48775 38.2765 7.29283 37.6668 7.26046 37.038C7.22809 36.4091 7.35939 35.7826 7.64152 35.2196C7.97839 34.5029 8.16179 33.7236 8.17995 32.9319C8.19812 32.1401 8.05066 31.3532 7.74702 30.6218C7.44338 29.8903 6.99026 29.2303 6.41671 28.6842C5.84315 28.138 5.16181 27.7178 4.41637 27.4503C3.68748 27.1887 3.05716 26.7084 2.61156 26.0751C2.16595 25.4417 1.9268 24.6862 1.9268 23.9118C1.9268 23.1374 2.16595 22.3819 2.61156 21.7486C3.05716 21.1153 3.68748 20.635 4.41637 20.3734C5.51849 19.9802 6.47202 19.2557 7.14623 18.2993C7.82045 17.3429 8.18235 16.2013 8.18234 15.0311C8.18033 14.1896 7.99345 13.3588 7.63492 12.5974C7.22303 11.7663 7.13957 10.8105 7.40117 9.92056C7.66277 9.03063 8.25021 8.27201 9.04633 7.796C9.57637 7.4591 10.1841 7.26397 10.8111 7.22933C11.4382 7.19468 12.0637 7.32167 12.6276 7.59813C13.3446 7.93738 14.1247 8.12283 14.9176 8.14258C15.7106 8.16233 16.4989 8.01593 17.2319 7.71279C17.9649 7.40966 18.6263 6.9565 19.1737 6.38245C19.7211 5.80839 20.1423 5.12615 20.4102 4.37958C20.6701 3.64999 21.1494 3.01869 21.7824 2.57229C22.4153 2.12588 23.1708 1.88625 23.9453 1.88625C24.7198 1.88625 25.4754 2.12588 26.1083 2.57229C26.7412 3.01869 27.2205 3.64999 27.4805 4.37958C27.7462 5.12629 28.1656 5.809 28.7114 6.3837C29.2572 6.95839 29.9175 7.41231 30.6495 7.71619C31.3815 8.02006 32.1691 8.16714 32.9615 8.14794C33.7538 8.12875 34.5334 7.9437 35.2498 7.60473C36.0822 7.19404 37.0385 7.11119 37.9291 7.37263C38.8198 7.63407 39.5796 8.22069 40.0579 9.01614C40.3974 9.54657 40.5934 10.156 40.627 10.7849C40.6605 11.4137 40.5303 12.0405 40.2491 12.604C39.8912 13.3656 39.7044 14.1963 39.7017 15.0377C39.7036 16.2076 40.0671 17.3482 40.7424 18.3034C41.4178 19.2586 42.372 19.9817 43.4743 20.3734C44.2032 20.635 44.8335 21.1153 45.2791 21.7486C45.7247 22.3819 45.9639 23.1374 45.9639 23.9118C45.9639 24.6862 45.7247 25.4417 45.2791 26.0751C44.8335 26.7084 44.2032 27.1887 43.4743 27.4503L43.4941 27.4767Z" fill="#FF7373"/>
<path id="Vector_3" d="M24.8027 12.5249C24.7237 12.3649 24.6016 12.2303 24.45 12.1362C24.2985 12.042 24.1237 11.9921 23.9453 11.9921C23.767 11.9921 23.5921 12.042 23.4406 12.1362C23.2891 12.2303 23.1669 12.3649 23.0879 12.5249L19.9881 18.8828L12.997 19.8985C12.8205 19.9252 12.6549 20.0004 12.5187 20.1157C12.3825 20.2311 12.281 20.382 12.2256 20.5517C12.1702 20.7213 12.163 20.903 12.2049 21.0765C12.2468 21.25 12.3361 21.4085 12.4627 21.5342L17.5214 26.4675L16.3013 33.4257C16.2703 33.6022 16.2896 33.7838 16.3569 33.9499C16.4242 34.1159 16.5368 34.2598 16.6819 34.3649C16.8269 34.4701 16.9986 34.5324 17.1774 34.5448C17.3561 34.5571 17.5348 34.519 17.6929 34.4348L23.9453 31.1371L30.1978 34.4348C30.3557 34.5172 30.5335 34.5538 30.7112 34.5406C30.8889 34.5274 31.0593 34.4648 31.2033 34.3598C31.3473 34.2549 31.4591 34.1119 31.5262 33.9468C31.5932 33.7818 31.6128 33.6013 31.5828 33.4257L30.389 26.4675L35.4477 21.5342C35.5769 21.4101 35.6684 21.2519 35.7116 21.078C35.7548 20.9042 35.7479 20.7216 35.6917 20.5515C35.6366 20.3809 35.5353 20.2291 35.3991 20.1126C35.2629 19.9962 35.0971 19.9198 34.9201 19.8919L27.9026 18.8828L24.8027 12.5249ZM28.694 25.4189C28.583 25.5267 28.4998 25.6598 28.4515 25.8068C28.4033 25.9539 28.3914 26.1104 28.417 26.2631L29.3667 31.8098L24.3872 29.1716C24.2498 29.1 24.097 29.0625 23.942 29.0625C23.787 29.0625 23.6343 29.1 23.4968 29.1716L18.5173 31.8098L19.4737 26.2631C19.4992 26.1104 19.4874 25.9539 19.4391 25.8068C19.3909 25.6598 19.3077 25.5267 19.1966 25.4189L15.1669 21.4616L20.7334 20.6504C20.886 20.6271 21.0309 20.5676 21.156 20.477C21.281 20.3864 21.3826 20.2672 21.4523 20.1294L23.9453 15.163L26.4318 20.2085C26.5021 20.3471 26.6047 20.4669 26.731 20.5575C26.8572 20.6482 27.0034 20.7072 27.1573 20.7295L32.7172 21.5408L28.694 25.4189Z" fill="#FF7373"/>
</g>
</svg>
